<svg xmlns="http://www.w3.org/2000/svg" width="1200" height="1600" viewBox="0 0 1200 1600">
  <defs>
    <linearGradient id="g" x1="0" y1="0" x2="0" y2="1">
      <stop offset="0" stop-color="#ffffff"/>
      <stop offset="1" stop-color="#f4f4f5"/>
    </linearGradient>
  </defs>
  <rect x="0" y="0" width="1200" height="1600" rx="48" fill="url(#g)"/>
  <rect x="80" y="120" width="1040" height="1360" rx="28" fill="#ffffff" stroke="#e4e4e7" stroke-width="2"/>
  <g fill="#a1a1aa">
    <rect x="140" y="200" width="360" height="18" rx="9"/>
    <rect x="140" y="240" width="520" height="12" rx="6" opacity="0.7"/>
    <rect x="140" y="320" width="900" height="14" rx="7" opacity="0.55"/>
    <rect x="140" y="360" width="860" height="14" rx="7" opacity="0.5"/>
    <rect x="140" y="400" width="820" height="14" rx="7" opacity="0.45"/>
    <rect x="140" y="470" width="760" height="14" rx="7" opacity="0.4"/>
    <rect x="140" y="510" width="840" height="14" rx="7" opacity="0.36"/>
    <rect x="140" y="550" width="780" height="14" rx="7" opacity="0.33"/>
    <rect x="140" y="620" width="900" height="14" rx="7" opacity="0.3"/>
    <rect x="140" y="660" width="860" height="14" rx="7" opacity="0.28"/>
    <rect x="140" y="700" width="800" height="14" rx="7" opacity="0.26"/>
  </g>
  <g fill="#d4d4d8">
    <rect x="140" y="860" width="920" height="2" rx="1"/>
    <rect x="140" y="980" width="920" height="2" rx="1"/>
    <rect x="140" y="1100" width="920" height="2" rx="1"/>
  </g>
  <g fill="#71717a">
    <text x="140" y="1400" font-family="ui-sans-serif, system-ui" font-size="18" opacity="0.75">
      Prescription preview placeholder
    </text>
  </g>
</svg>

